<svg width="154" height="166" viewBox="0 0 154 166" version="1.1" xmlns="http://www.w3.org/2000/svg" xmlns:xlink="http://www.w3.org/1999/xlink">
<title>jizi_logo</title>
<desc>Created using Figma</desc>
<g id="Canvas" transform="translate(-2450 2583)">
<g id="jizi_logo">
<g id="Group">
<g id="Group">
<g id="Vector">
<use xlink:href="#path0_fill" transform="matrix(7.03755 0 0 7.03755 2490.06 -2537.79)" fill="#00E3EB"/>
</g>
</g>
<g id="Group">
<g id="Vector">
<use xlink:href="#path1_fill" transform="matrix(7.03755 0 0 7.03755 2488.09 -2539.75)" fill="#00E3EB"/>
</g>
</g>
<g id="Group">
<g id="Vector">
<use xlink:href="#path2_fill" transform="matrix(7.03755 0 0 7.03755 2450 -2583)" fill="#00E3EB"/>
</g>
</g>
<g id="Group">
<g id="Vector">
<use xlink:href="#path3_fill" transform="matrix(1.09791 0 0 1.09791 2451.8 -2521.86)" fill="#00E3EB"/>
</g>
</g>
<g id="Group">
<g id="Vector">
<use xlink:href="#path4_fill" transform="matrix(7.03755 0 0 7.03755 2509.82 -2482.03)" fill="#00E3EB"/>
</g>
</g>
<g id="Group">
<g id="Vector">
<use xlink:href="#path5_fill" transform="matrix(7.03755 0 0 7.03755 2544.68 -2482.03)" fill="#00E3EB"/>
</g>
</g>
<g id="Group">
<g id="Vector">
<use xlink:href="#path6_fill" transform="matrix(7.03755 0 0 7.03755 2586.73 -2482.03)" fill="#00E3EB"/>
</g>
</g>
<g id="Group">
<g id="Vector">
<use xlink:href="#path7_fill" transform="matrix(7.03755 0 0 7.03755 2485.73 -2448.23)" fill="#00E3EB"/>
</g>
</g>
<g id="Group">
<g id="Vector">
<use xlink:href="#path8_fill" transform="matrix(7.03755 0 0 7.03755 2501.02 -2449.27)" fill="#00E3EB"/>
</g>
</g>
<g id="Group">
<g id="Vector">
<use xlink:href="#path9_fill" transform="matrix(7.03755 0 0 7.03755 2516.21 -2449.46)" fill="#00E3EB"/>
</g>
</g>
<g id="Group">
<g id="Vector">
<use xlink:href="#path10_fill" transform="matrix(7.03755 0 0 7.03755 2531.73 -2449.38)" fill="#00E3EB"/>
</g>
</g>
<g id="Group">
<g id="Vector">
<use xlink:href="#path11_fill" transform="matrix(7.03755 0 0 7.03755 2546.91 -2449.32)" fill="#00E3EB"/>
</g>
</g>
<g id="Group">
<g id="Vector">
<use xlink:href="#path12_fill" transform="matrix(7.03755 0 0 7.03755 2562.23 -2449.37)" fill="#00E3EB"/>
</g>
</g>
<g id="Group">
<g id="Vector">
<use xlink:href="#path13_fill" transform="matrix(7.03755 0 0 7.03755 2577.53 -2449.05)" fill="#00E3EB"/>
</g>
</g>
<g id="Group">
<g id="Vector">
<use xlink:href="#path14_fill" transform="matrix(7.03755 0 0 7.03755 2592.6 -2449.38)" fill="#00E3EB"/>
</g>
</g>
</g>
</g>
</g>
<defs>
<path id="path0_fill" d="M 1.56503 0.781747C 1.56503 1.21357 1.21437 1.56349 0.782674 1.56349C 0.349712 1.56349 5.65376e-08 1.21357 5.65376e-08 0.781747C 5.65376e-08 0.350243 0.349712 -3.54443e-08 0.782674 -3.54443e-08C 1.21437 -3.54443e-08 1.56503 0.350243 1.56503 0.781747Z"/>
<path id="path1_fill" d="M 0 1.06081C 0 1.6457 0.475848 2.12161 1.06207 2.12161C 1.64734 2.12161 2.12382 1.6457 2.12382 1.06081C 2.12382 0.475599 1.64734 -9.61201e-09 1.06207 -9.61201e-09C 0.475848 -9.61201e-09 0 0.475599 0 1.06081Z"/>
<path id="path2_fill" d="M 0.093656 0.579853C 0.115099 0.714029 0.63951 3.88983 2.05791 6.35476C 3.47852 8.82473 5.18955 10.1356 5.26145 10.1907L 5.63008 9.77246C 5.61432 9.75577 4.00608 8.0896 3.40757 5.42498C 2.85698 2.97517 2.99226 1.94019 2.99415 1.93074L 3.02033 1.74397L 2.8573 1.64885L 2.85695e-09 1.9224e-08L 0.093656 0.579853Z"/>
<path id="path3_fill" fill-rule="evenodd" d="M 26.6989 41.1337L 28.4818 41.1337L 28.4818 51.8318C 28.4818 52.9282 28.4635 53.8224 28.4273 54.5292C 28.3888 55.2297 28.2352 55.8779 27.9603 56.4694C 27.6711 57.0669 27.188 57.5412 26.5069 57.8763C 25.8298 58.2114 24.8614 58.3771 23.6023 58.3771C 22.6301 58.3771 21.8316 58.2864 21.2069 58.0965C 20.5822 57.9069 19.984 57.7028 19.406 57.4848L 18.7593 57.4848L 18.7593 62.9076C 19.588 63.0733 20.5482 63.2024 21.6396 63.2931C 22.7269 63.3841 23.8933 63.4286 25.1282 63.4286C 26.9515 63.4286 28.4837 63.2226 29.7189 62.8087C 30.758 62.4603 31.6712 61.992 32.4573 61.4036C 31.8017 62.8304 31.1133 64.2078 30.3966 65.5221C 20.2738 84.0598 6.66219 93.476 6.08827 93.8656L 3.67056 95.5132L 0.179747 68.0053L 1.2318e-06 66.4689L 1.49565 66.0551C 1.55431 66.039 7.54956 64.2846 17.4683 53.4369C 21.4791 49.0503 24.507 44.7372 26.6989 41.1337ZM 29.4089 36.28C 30.0525 35.0132 30.5312 33.9704 30.8595 33.2154C 33.0322 28.2266 35.5489 20.3812 37.744 1.9993e-06L 41.3136 0.131341C 41.3237 0.341108 42.0071 21.5075 38.8376 40.5743C 38.0915 45.0651 36.9049 49.6708 35.3884 54.0678L 35.3884 36.28L 29.4089 36.28Z"/>
<path id="path4_fill" d="M 2.45461 4.17519L 2.52615e-08 4.17519L 2.52615e-08 3.43754L 0.688072 3.43754L 0.688072 0.737021L 2.52615e-08 0.737021L 2.52615e-08 0L 2.45461 0L 2.45461 0.737021L 1.7659 0.737021L 1.7659 3.43754L 2.45461 3.43754L 2.45461 4.17519Z"/>
<path id="path5_fill" d="M 3.5132 4.17519L 6.49581e-08 4.17519L 6.49581e-08 3.39817L 2.09985 0.806629L 0.100594 0.806629L 0.100594 0L 3.40284 0L 3.40284 0.79655L 1.32064 3.36794L 3.5132 3.36794L 3.5132 4.17519Z"/>
<path id="path6_fill" d="M 2.45429 4.17519L 2.40585e-09 4.17519L 2.40585e-09 3.43754L 0.688387 3.43754L 0.688387 0.737021L 2.40585e-09 0.737021L 2.40585e-09 0L 2.45429 0L 2.45429 0.737021L 1.76559 0.737021L 1.76559 3.43754L 2.45429 3.43754L 2.45429 4.17519Z"/>
<path id="path7_fill" d="M 0.152625 0.125357C 0.122037 0.125357 0.104378 0.0976396 0.104378 0.0626783C 0.104378 0.0274021 0.122037 2.10263e-08 0.152625 2.10263e-08L 1.32884 2.10263e-08C 1.35943 2.10263e-08 1.37709 0.0274021 1.37709 0.0626783C 1.37709 0.0963797 1.35943 0.125357 1.32884 0.125357L 0.791188 0.125357L 0.791188 1.04443L 1.43669 1.04443C 1.46696 1.04443 1.48336 1.07152 1.48336 1.10522C 1.48336 1.14238 1.46696 1.17104 1.43669 1.17104L 0.0479317 1.17104C 0.017659 1.17104 8.27012e-10 1.14238 8.27012e-10 1.10522C 8.27012e-10 1.07152 0.017659 1.04443 0.0479317 1.04443L 0.656223 1.04443L 0.656223 0.125357L 0.152625 0.125357Z"/>
<path id="path8_fill" d="M 0.791504 0.491663C 0.839751 0.689146 0.931515 0.855134 1.04251 0.98679C 1.1614 1.12821 1.30803 1.2353 1.44804 1.29987C 1.4739 1.3112 1.48494 1.33199 1.48494 1.35467C 1.48494 1.36947 1.48021 1.38554 1.47232 1.39845C 1.45939 1.4205 1.43669 1.43215 1.41398 1.43215C 1.40137 1.43215 1.38687 1.42869 1.37394 1.42239C 1.21942 1.3468 1.06017 1.2164 0.94602 1.07057C 0.854256 0.953088 0.780151 0.814503 0.733481 0.65891C 0.707938 0.766628 0.671044 0.862693 0.619328 0.956238C 0.505175 1.16538 0.318493 1.33199 0.10154 1.43026C 0.0901873 1.4353 0.0788351 1.43845 0.0690595 1.43845C 0.0466704 1.43845 0.0242812 1.42743 0.00977551 1.39845C 0.00315337 1.3868 3.00732e-09 1.37388 3.00732e-09 1.36286C 3.00732e-09 1.33987 0.0129289 1.32097 0.0356334 1.30995C 0.25921 1.20821 0.410257 1.07781 0.513374 0.88726C 0.57928 0.766628 0.616175 0.645996 0.636987 0.491663L 0.0677981 0.491663C 0.0356334 0.491663 0.017659 0.462686 0.017659 0.427724C 0.017659 0.393708 0.0356334 0.366936 0.0677981 0.366936L 0.649916 0.366936C 0.656538 0.276226 0.659691 0.173546 0.659691 0.0548041C 0.659691 0.0160633 0.686811 -1.32165e-08 0.725597 -1.32165e-08C 0.765646 -1.32165e-08 0.789927 0.0192129 0.789927 0.0548041C 0.789927 0.167562 0.786774 0.270241 0.778575 0.366936L 1.41588 0.366936C 1.44804 0.366936 1.4657 0.393708 1.4657 0.427724C 1.4657 0.462686 1.44804 0.491663 1.41588 0.491663L 0.791504 0.491663Z"/>
<path id="path9_fill" d="M 1.09076 1.06742C 1.10527 1.06742 1.12135 1.07372 1.1327 1.08821C 1.21311 1.18112 1.332 1.27152 1.42376 1.32097C 1.44489 1.33073 1.45435 1.35152 1.45435 1.37325C 1.45435 1.38428 1.4512 1.3953 1.44489 1.40632C 1.43196 1.43089 1.41272 1.44192 1.39317 1.44192C 1.38024 1.44192 1.36921 1.43845 1.35628 1.43089C 1.24685 1.36443 1.12766 1.26302 1.04094 1.16538C 1.02959 1.15246 1.02486 1.13986 1.02486 1.12695C 1.02486 1.1112 1.03432 1.09451 1.05071 1.08222C 1.06175 1.07246 1.07626 1.06742 1.09076 1.06742ZM 1.30645 0.0966947C 1.38024 0.0966947 1.42061 0.137325 1.42061 0.192129C 1.42061 0.217327 1.41083 0.244414 1.3916 0.273391C 1.33515 0.353707 1.25001 0.442528 1.15194 0.51812C 1.24685 0.609775 1.35943 0.683477 1.48494 0.741431C 1.5089 0.750565 1.52183 0.771668 1.52183 0.796235C 1.52183 0.803479 1.52025 0.813243 1.51552 0.823322C 1.5026 0.850409 1.48336 0.864898 1.45908 0.864898C 1.44962 0.864898 1.43827 0.861433 1.42691 0.857023C 1.13743 0.712454 0.887998 0.463315 0.782043 0.124412C 0.780467 0.117482 0.778575 0.111498 0.778575 0.104569C 0.778575 0.083781 0.791504 0.0664579 0.818938 0.0566939C 0.827137 0.0548041 0.833444 0.0535443 0.839751 0.0535443C 0.860878 0.0535443 0.876645 0.0677178 0.886421 0.093545C 0.928361 0.225201 0.992691 0.339534 1.07468 0.437488C 1.15667 0.378275 1.23393 0.302683 1.27587 0.243154C 1.2806 0.234965 1.28375 0.227091 1.28375 0.220791C 1.28375 0.209138 1.27429 0.203153 1.25316 0.203153L 0.998997 0.203153C 0.971878 0.203153 0.953904 0.179216 0.953904 0.148349C 0.953904 0.117482 0.971878 0.0966947 0.998997 0.0966947L 1.30645 0.0966947ZM 1.0053 0.607885C 1.03432 0.607885 1.04882 0.631823 1.04882 0.663949C 1.04882 0.696391 1.03432 0.718753 1.0053 0.718753L 0.550268 0.718753C 0.51968 0.718753 0.505175 0.696391 0.505175 0.663949C 0.505175 0.631823 0.51968 0.607885 0.550268 0.607885L 1.0053 0.607885ZM 0.180374 0.999703C 0.151363 0.999703 0.135281 0.973876 0.135281 0.942064C 0.135281 0.909938 0.151363 0.88726 0.180374 0.88726L 1.36101 0.88726C 1.39002 0.88726 1.40452 0.909938 1.40452 0.942064C 1.40452 0.973876 1.39002 0.999703 1.36101 0.999703L 0.83029 0.999703L 0.83029 1.3468C 0.83029 1.45325 0.768799 1.49609 0.653069 1.49609C 0.596939 1.49609 0.54207 1.492 0.498868 1.48192C 0.471433 1.47404 0.456928 1.45483 0.456928 1.42743C 0.456928 1.4205 0.458504 1.41451 0.458504 1.40821C 0.466703 1.37924 0.484362 1.36254 0.506751 1.36254C 0.511797 1.36254 0.516527 1.36254 0.51968 1.36443C 0.556575 1.37451 0.601669 1.3805 0.642032 1.3805C 0.693433 1.3805 0.711092 1.36632 0.711092 1.31152L 0.711092 0.999703L 0.180374 0.999703ZM 0.485939 1.12695C 0.485939 1.13829 0.482786 1.14931 0.474587 1.15908C 0.397328 1.26176 0.283175 1.36632 0.175329 1.4353C 0.165554 1.44192 0.15294 1.44507 0.143164 1.44507C 0.120775 1.44507 0.101539 1.43341 0.0870338 1.41325C 0.078835 1.40034 0.0756816 1.38869 0.0756816 1.37924C 0.0756816 1.35971 0.0870339 1.34365 0.10627 1.33073C 0.19961 1.27278 0.30588 1.18616 0.373363 1.08821C 0.3844 1.07372 0.400797 1.06553 0.418456 1.06553C 0.43107 1.06553 0.445575 1.07057 0.458504 1.07844C 0.476163 1.09136 0.485939 1.10931 0.485939 1.12695ZM 0.656538 0.0985845C 0.724021 0.0985845 0.757762 0.135436 0.757762 0.18835C 0.757762 0.206303 0.753032 0.227091 0.744833 0.247879C 0.646762 0.497017 0.391022 0.738281 0.096494 0.88726C 0.0804117 0.897024 0.0674828 0.900174 0.0548691 0.900174C 0.0337414 0.900174 0.0195511 0.88915 0.00819881 0.866787C 0.00315337 0.855134 -3.48849e-08 0.84537 -3.48849e-08 0.836236C -3.48849e-08 0.813243 0.012929 0.796235 0.0353181 0.786156C 0.135281 0.738281 0.221999 0.683477 0.297681 0.625838C 0.260786 0.589932 0.220423 0.55812 0.181951 0.530403C 0.170599 0.522844 0.164292 0.509931 0.164292 0.497017C 0.164292 0.485363 0.169022 0.474339 0.180374 0.463315C 0.189835 0.453552 0.202764 0.447252 0.217269 0.447252C 0.227045 0.447252 0.238082 0.450402 0.247857 0.456701C 0.288221 0.484103 0.334891 0.521269 0.376516 0.55938C 0.411834 0.525994 0.447152 0.492292 0.47774 0.455441C 0.434223 0.418275 0.391022 0.385834 0.352235 0.360636C 0.341198 0.352447 0.334891 0.340794 0.334891 0.32788C 0.334891 0.318746 0.337729 0.308982 0.345928 0.299218C 0.355388 0.287879 0.368317 0.281895 0.382823 0.281895C 0.392598 0.281895 0.402059 0.285045 0.411834 0.289769C 0.450621 0.310872 0.495399 0.342683 0.538916 0.378275C 0.569504 0.334809 0.595362 0.291029 0.619328 0.244414C 0.62595 0.23339 0.629103 0.225201 0.629103 0.217327C 0.629103 0.206303 0.619328 0.199374 0.595362 0.199374L 0.373363 0.199374C 0.294528 0.310872 0.198034 0.407252 0.0949174 0.474339C 0.0838805 0.482528 0.0709515 0.487253 0.0595993 0.487253C 0.0435169 0.487253 0.0290113 0.479379 0.0160823 0.461426C 0.00977554 0.450402 0.00504542 0.439378 0.00504542 0.426464C 0.00504542 0.410401 0.0129289 0.394338 0.0337414 0.381424C 0.159247 0.297958 0.271823 0.179216 0.342775 0.0327565C 0.355388 0.0100789 0.373363 1.83229e-08 0.394175 1.83229e-08C 0.402059 1.83229e-08 0.410257 0.00188978 0.420033 0.00566938C 0.445575 0.0100789 0.461658 0.0258273 0.461658 0.0456701C 0.461658 0.0516545 0.460081 0.0579538 0.455351 0.0664579C 0.450621 0.0774817 0.443999 0.0875607 0.437692 0.0985845L 0.656538 0.0985845Z"/>
<path id="path10_fill" d="M 1.27744 0.157483C 1.37236 0.157483 1.41588 0.197484 1.41588 0.289139L 1.41588 0.444733C 1.41588 0.478749 1.39317 0.494497 1.35502 0.494497C 1.31749 0.494497 1.29542 0.478749 1.29542 0.446622L 1.29542 0.308352C 1.29542 0.276225 1.27933 0.267091 1.24528 0.267091L 0.196457 0.267091C 0.160823 0.267091 0.145056 0.276225 0.145056 0.308352L 0.145056 0.444733C 0.145056 0.475599 0.122352 0.491662 0.0854572 0.491662C 0.0466703 0.491662 0.0242812 0.475599 0.0242812 0.443473L 0.0242812 0.289139C 0.0242812 0.197484 0.0677981 0.157483 0.164292 0.157483L 0.646763 0.157483L 0.646763 0.0529143C 0.646763 0.0192129 0.665998 3.00375e-08 0.707939 3.00375e-08C 0.751455 3.00375e-08 0.769115 0.0192129 0.769115 0.0529143L 0.769115 0.157483L 1.27744 0.157483ZM 0.784882 1.0249C 0.897458 1.20317 1.12639 1.31908 1.40011 1.35939C 1.42723 1.36254 1.44804 1.38648 1.44804 1.41735C 1.44804 1.42176 1.44804 1.42837 1.44615 1.43341C 1.43827 1.47026 1.41115 1.48633 1.38214 1.48633C 1.37709 1.48633 1.37425 1.48633 1.3711 1.48444C 1.07626 1.4353 0.826822 1.30302 0.682081 1.07656C 0.659691 1.12443 0.63068 1.16947 0.598515 1.2101C 0.471433 1.36569 0.273715 1.44822 0.0838804 1.48633C 0.0756816 1.48822 0.0693748 1.48822 0.0627527 1.48822C 0.0340567 1.48822 0.0113523 1.47215 0.00315344 1.44129C 3.49483e-08 1.4353 -3.72907e-08 1.42648 -3.72907e-08 1.4205C -3.72907e-08 1.39152 0.0160823 1.36758 0.0450936 1.36254C 0.221999 1.32695 0.405527 1.25798 0.503598 1.14049C 0.534186 1.10238 0.559729 1.06364 0.57928 1.0249L 0.0485623 1.0249C 0.0211278 1.0249 0.00315344 1.00569 0.00315344 0.971986C 0.00315344 0.93986 0.0211278 0.920332 0.0485623 0.920332L 0.617751 0.920332C 0.63068 0.874032 0.636987 0.826157 0.642032 0.777652L 0.230198 0.777652C 0.202764 0.777652 0.186681 0.756549 0.186681 0.726627C 0.186681 0.693871 0.202764 0.675918 0.230198 0.675918L 0.649916 0.675918L 0.649916 0.642846C 0.651808 0.61072 0.653069 0.578278 0.653069 0.546152L 0.215693 0.546152C 0.186681 0.546152 0.172176 0.525364 0.172176 0.494497C 0.172176 0.462686 0.186681 0.444733 0.215693 0.444733L 0.654961 0.444733C 0.656223 0.414496 0.656223 0.382684 0.656223 0.348668C 0.656223 0.318116 0.675774 0.300163 0.711092 0.300163C 0.749563 0.300163 0.767538 0.314966 0.767538 0.345203C 0.767538 0.380794 0.767538 0.414496 0.765646 0.444733L 1.22257 0.444733C 1.25032 0.444733 1.26641 0.462686 1.26641 0.494497C 1.26641 0.525364 1.25032 0.546152 1.22257 0.546152L 0.765646 0.546152L 0.765646 0.567254C 0.764384 0.602216 0.764384 0.639697 0.760916 0.675918L 1.20176 0.675918C 1.22951 0.675918 1.24528 0.693871 1.24528 0.726627C 1.24528 0.756549 1.22951 0.777652 1.20176 0.777652L 0.754609 0.777652C 0.751455 0.826157 0.743257 0.872457 0.733481 0.920332L 1.39696 0.920332C 1.42408 0.920332 1.44173 0.93986 1.44173 0.971986C 1.44173 1.00569 1.42408 1.0249 1.39696 1.0249L 0.784882 1.0249Z"/>
<path id="path11_fill" d="M 0.636987 0.201264C 0.607976 0.201264 0.591893 0.175436 0.591893 0.141735C 0.591893 0.107718 0.607976 0.0850409 0.636987 0.0850409L 1.35439 0.0850409C 1.38403 0.0850409 1.40011 0.107718 1.40011 0.141735C 1.40011 0.173546 1.38403 0.201264 1.35439 0.201264L 0.636987 0.201264ZM 0.574234 0.615129C 0.543962 0.615129 0.527249 0.589932 0.527249 0.55749C 0.527249 0.523474 0.543962 0.499537 0.574234 0.499537L 1.42912 0.499537C 1.45813 0.499537 1.4739 0.523474 1.4739 0.55749C 1.4739 0.588357 1.45813 0.615129 1.42912 0.615129L 1.19545 0.615129L 1.19545 1.30113C 1.19545 1.41546 1.12797 1.4605 1.00026 1.4605C 0.939398 1.4605 0.868447 1.45325 0.817361 1.4416C 0.791504 1.4353 0.770691 1.41388 0.770691 1.38365C 0.770691 1.37861 0.770691 1.37577 0.772583 1.37073C 0.778575 1.33987 0.799702 1.32097 0.82556 1.32097C 0.83029 1.32097 0.835336 1.32097 0.839751 1.32286C 0.881376 1.33199 0.947282 1.34176 0.994267 1.34176C 1.05071 1.34176 1.06995 1.32569 1.06995 1.26931L 1.06995 0.615129L 0.574234 0.615129ZM 0.391337 4.0851e-08C 0.404266 4.0851e-08 0.418456 0.00314966 0.429493 0.0110238C 0.449044 0.0223626 0.460081 0.0400007 0.460081 0.0598436C 0.460081 0.0708674 0.457243 0.0800014 0.450306 0.0897654C 0.381246 0.199374 0.242812 0.340794 0.122037 0.430874C 0.109108 0.440008 0.0949174 0.445362 0.0819884 0.445362C 0.0659061 0.445362 0.048247 0.436858 0.0353181 0.419535C 0.0261732 0.406622 0.0211278 0.391818 0.0211278 0.37796C 0.0211278 0.360007 0.0290113 0.343943 0.0469857 0.332919C 0.162715 0.249138 0.273715 0.141735 0.347505 0.0223626C 0.35728 0.00818912 0.375255 4.0851e-08 0.391337 4.0851e-08ZM 0.228622 0.946159C 0.228622 0.880331 0.233667 0.811353 0.246596 0.735761C 0.19961 0.789306 0.146633 0.83844 0.0961787 0.877181C 0.0851418 0.88537 0.0741049 0.89041 0.063068 0.89041C 0.0450936 0.89041 0.0271193 0.880331 0.012929 0.863323C 0.00504545 0.850409 6.01463e-09 0.837496 6.01463e-09 0.824582C 6.01463e-09 0.808519 0.00819883 0.792455 0.0261732 0.777652C 0.169022 0.665209 0.291374 0.533553 0.381246 0.378905C 0.394175 0.361896 0.408365 0.352132 0.428232 0.352132C 0.439269 0.352132 0.450306 0.354967 0.463235 0.361896C 0.48247 0.37481 0.494138 0.390873 0.494138 0.407881C 0.494138 0.417645 0.490985 0.428984 0.484362 0.438748C 0.450306 0.501426 0.404266 0.567254 0.353812 0.625208L 0.353812 1.43341C 0.353812 1.46428 0.328269 1.48034 0.291374 1.48034C 0.255741 1.48034 0.228622 1.46428 0.228622 1.43341L 0.228622 0.946159Z"/>
<path id="path12_fill" d="M 0.551845 0.977026C 0.520942 1.01451 0.490985 1.04947 0.460081 1.07844C 0.449044 1.08852 0.443999 1.0964 0.443999 1.10238C 0.443999 1.10931 0.452198 1.11246 0.467965 1.1153C 0.561621 1.13325 0.665683 1.15719 0.775421 1.18616C 0.85741 1.13325 0.922054 1.06238 0.968094 0.977026L 0.551845 0.977026ZM 1.09581 0.977026C 1.07783 1.01451 1.0586 1.04947 1.03589 1.08159C 0.998997 1.13451 0.955796 1.18112 0.905972 1.22301C 1.05071 1.26679 1.19545 1.31656 1.32537 1.36947C 1.35817 1.38239 1.37236 1.40506 1.37236 1.42743C 1.37236 1.4353 1.37047 1.44507 1.36605 1.45325C 1.35628 1.47593 1.33515 1.49011 1.30929 1.49011C 1.29826 1.49011 1.28722 1.48696 1.27429 1.48223C 1.13081 1.41325 0.963995 1.35152 0.793396 1.30176C 0.619643 1.40506 0.3844 1.46617 0.0898719 1.48318L 0.0867185 1.48318C 0.0517158 1.48318 0.0290113 1.45798 0.0277499 1.42554L 0.0277499 1.4205C 0.0277499 1.39026 0.0450936 1.36758 0.078835 1.36632C 0.310295 1.35467 0.495084 1.31656 0.636987 1.25892C 0.538916 1.23278 0.440845 1.2101 0.346243 1.1912C 0.310295 1.18301 0.291374 1.15908 0.291374 1.1301C 0.291374 1.11057 0.30115 1.08947 0.318493 1.07246C 0.349081 1.04348 0.379354 1.01136 0.410257 0.977026L 0.064014 0.977026C 0.0368948 0.977026 0.0192357 0.954978 0.0192357 0.920962C 0.0192357 0.88915 0.0387868 0.869937 0.0659061 0.869937L 0.496976 0.869937C 0.522834 0.834346 0.5468 0.799385 0.567928 0.763478C 0.580856 0.744581 0.596939 0.732927 0.61649 0.732927C 0.625635 0.732927 0.635726 0.734502 0.646763 0.739541C 0.669467 0.749305 0.681765 0.763478 0.681765 0.781432C 0.681765 0.789306 0.678612 0.799385 0.674512 0.808519C 0.661583 0.829306 0.648655 0.848519 0.633834 0.869937L 1.39191 0.869937C 1.42092 0.869937 1.43827 0.88915 1.43827 0.920962C 1.43827 0.953088 1.42092 0.977026 1.39317 0.977026L 1.09581 0.977026ZM 0.0567612 0.440638C 0.0290113 0.440638 0.0129289 0.41796 0.0129289 0.385834C 0.0129289 0.355597 0.0290113 0.332919 0.0567612 0.332919L 0.662845 0.332919L 0.662845 0.19024C 0.505175 0.201264 0.344351 0.206303 0.192673 0.206303C 0.162715 0.206303 0.14348 0.1852 0.14348 0.151499C 0.14348 0.117482 0.162715 0.0966947 0.191411 0.0966947C 0.535763 0.0966947 0.925208 0.0677178 1.21154 0.0037796C 1.22131 0.0018898 1.22762 1.62203e-08 1.23424 1.62203e-08C 1.26325 1.62203e-08 1.27933 0.0160633 1.28533 0.0418905C 1.28848 0.0488198 1.28848 0.0548041 1.28848 0.0598436C 1.28848 0.0869307 1.27051 0.106459 1.24339 0.111498C 1.1018 0.143625 0.942867 0.166302 0.778575 0.180476L 0.778575 0.332919L 1.40295 0.332919C 1.43007 0.332919 1.44615 0.355597 1.44615 0.385834C 1.44615 0.41796 1.43007 0.440638 1.40295 0.440638L 0.88516 0.440638C 1.02296 0.551191 1.23046 0.638752 1.42818 0.681902C 1.46412 0.689776 1.47516 0.707729 1.47516 0.731667C 1.47516 0.737651 1.4739 0.74584 1.47201 0.752455C 1.4657 0.781432 1.44993 0.796235 1.42092 0.796235C 1.41241 0.796235 1.40421 0.794345 1.39506 0.792455C 1.1696 0.742691 0.905972 0.605995 0.762492 0.453552C 0.772268 0.500167 0.778575 0.55812 0.778575 0.591822L 0.778575 0.696391C 0.778575 0.725368 0.756186 0.741431 0.720552 0.741431C 0.687441 0.741431 0.662845 0.721588 0.662845 0.694816L 0.662845 0.589932C 0.662845 0.554971 0.670728 0.497332 0.680504 0.455441C 0.533871 0.601271 0.30115 0.739541 0.0737896 0.797495C 0.0677981 0.799385 0.0595993 0.80033 0.0529771 0.80033C 0.0290113 0.80033 0.00977554 0.787416 0.0031534 0.761589C 0.00189204 0.755604 0 0.749305 0 0.741431C 0 0.716863 0.014821 0.694816 0.0450936 0.686627C 0.225468 0.642846 0.421294 0.551191 0.556891 0.440638L 0.0567612 0.440638Z"/>
<path id="path13_fill" d="M 1.41903 1.33924C 1.44804 1.34365 1.46412 1.36443 1.46412 1.39215C 1.46412 1.39719 1.46412 1.40318 1.46286 1.40821C 1.45403 1.44003 1.43511 1.45483 1.4061 1.45483C 1.40106 1.45483 1.39506 1.45483 1.39002 1.45294C 1.24843 1.43404 1.06364 1.38239 0.947912 1.32128C 0.926785 1.30963 0.915117 1.29262 0.915117 1.27467C 0.915117 1.26302 0.920162 1.25073 0.929938 1.23971C 0.940975 1.2249 0.957057 1.21672 0.976924 1.21672C 0.987961 1.21672 1.00278 1.21986 1.01508 1.22774C 1.10558 1.27278 1.2806 1.31656 1.41903 1.33924ZM 1.11473 0.243154C 1.14752 0.243154 1.16329 0.236855 1.16329 0.207878L 1.16329 0.13827C 1.16329 0.108348 1.14752 0.0995294 1.11473 0.0995294L 0.341198 0.0995294C 0.309033 0.0995294 0.292636 0.108348 0.292636 0.13827L 0.292636 0.207878C 0.292636 0.236855 0.309033 0.243154 0.341198 0.243154L 1.11473 0.243154ZM 0.238397 0.959703L 0.238397 1.03151C 0.238397 1.06427 0.254479 1.07215 0.288221 1.07215L 1.1677 1.07215C 1.20176 1.07215 1.21816 1.06427 1.21816 1.03151L 1.21816 0.959703L 0.238397 0.959703ZM 0.238397 0.863008L 1.21816 0.863008L 1.21816 0.754029L 0.238397 0.754029L 0.238397 0.863008ZM 1.21816 0.583948C 1.21816 0.553081 1.20176 0.545207 1.1677 0.545207L 0.288221 0.545207C 0.254479 0.545207 0.238397 0.553081 0.238397 0.583948L 0.238397 0.65765L 1.21816 0.65765L 1.21816 0.583948ZM 1.14059 -4.28035e-09C 1.23739 -4.28035e-09 1.28217 0.0343313 1.28217 0.121262L 1.28217 0.225201C 1.28217 0.310557 1.23739 0.342683 1.14059 0.342683L 0.31534 0.342683C 0.218531 0.342683 0.173752 0.310557 0.173752 0.225201L 0.173752 0.121262C 0.173752 0.0343313 0.220423 -4.28035e-09 0.31534 -4.28035e-09L 1.14059 -4.28035e-09ZM 1.19356 0.442213C 1.29353 0.442213 1.33704 0.479379 1.33704 0.567884L 1.33704 1.04947C 1.33704 1.13797 1.29353 1.17514 1.19356 1.17514L 0.262363 1.17514C 0.162715 1.17514 0.118883 1.13797 0.118883 1.04947L 0.118883 0.567884C 0.118883 0.479379 0.162715 0.442213 0.262363 0.442213L 1.19356 0.442213ZM 0.47301 1.21672C 0.492246 1.21672 0.509905 1.2249 0.520942 1.24254C 0.529771 1.25388 0.532609 1.2649 0.532609 1.27467C 0.532609 1.29357 0.51968 1.31152 0.495715 1.32254C 0.373363 1.38239 0.209386 1.42711 0.076943 1.45011C 0.0709515 1.45105 0.064014 1.45105 0.0580226 1.45105C 0.0290113 1.45105 0.00788352 1.43814 0.00189205 1.40632C 1.32158e-08 1.40192 0 1.3953 0 1.39026C 0 1.36254 0.0179744 1.3405 0.0479317 1.33546C 0.175644 1.3153 0.320385 1.27593 0.439269 1.22301C 0.450306 1.21797 0.461973 1.21672 0.47301 1.21672Z"/>
<path id="path14_fill" d="M 1.09076 0.502686C 1.11977 0.502686 1.13585 0.530403 1.13585 0.562215C 1.13585 0.594342 1.11977 0.622059 1.09076 0.622059L 0.429178 0.622059C 0.400482 0.622059 0.3844 0.594342 0.3844 0.562215C 0.3844 0.530403 0.400482 0.502686 0.429178 0.502686L 1.09076 0.502686ZM 0.67735 0.929151C 0.617751 1.05766 0.556891 1.18427 0.479317 1.30302C 0.683657 1.2901 0.887998 1.27278 1.09076 1.24412C 1.04094 1.18427 0.98796 1.12632 0.938137 1.07656C 0.928046 1.06679 0.923316 1.05388 0.923316 1.04285C 0.923316 1.02679 0.931199 1.01262 0.94602 1.00285C 0.960211 0.991199 0.975032 0.98679 0.989222 0.98679C 1.00562 0.98679 1.0217 0.991199 1.03274 1.00411C 1.14878 1.1153 1.2806 1.27089 1.36731 1.39341C 1.3752 1.40255 1.37835 1.41546 1.37835 1.4268C 1.37835 1.44633 1.36921 1.46428 1.35312 1.47719C 1.3402 1.48633 1.32411 1.49137 1.31118 1.49137C 1.29163 1.49137 1.27366 1.48318 1.26262 1.46743C 1.23739 1.42837 1.20649 1.3868 1.17464 1.34491C 0.855518 1.39467 0.4872 1.42554 0.147894 1.44444L 0.144741 1.44444C 0.112576 1.44444 0.0851418 1.42176 0.0838804 1.38365L 0.0838804 1.37861C 0.0838804 1.34176 0.100909 1.31908 0.134966 1.31782C 0.202764 1.31593 0.271508 1.31278 0.339306 1.30932C 0.41688 1.18931 0.482155 1.06175 0.533871 0.929151L 0.107846 0.929151C 0.078835 0.929151 0.0608606 0.904268 0.0608606 0.871197C 0.0608606 0.835606 0.078835 0.811353 0.107846 0.811353L 1.41115 0.811353C 1.4411 0.811353 1.45719 0.835606 1.45719 0.869307C 1.45719 0.904268 1.4411 0.929151 1.41115 0.929151L 0.67735 0.929151ZM 0.759339 1.9224e-08C 0.794657 1.9224e-08 0.831552 0.0129136 0.852364 0.036851C 1.01697 0.247249 1.24181 0.406622 1.48304 0.51875C 1.5089 0.531663 1.52183 0.554341 1.52183 0.578278C 1.52183 0.588042 1.51994 0.598121 1.51521 0.607255C 1.50417 0.633082 1.48494 0.647256 1.46034 0.647256C 1.44804 0.647256 1.43322 0.644106 1.41903 0.636232C 1.1677 0.51245 0.938137 0.343943 0.780467 0.139845C 0.772268 0.131656 0.765646 0.126931 0.759339 0.126931C 0.752717 0.126931 0.74641 0.131656 0.739788 0.138585C 0.596939 0.32788 0.35728 0.523474 0.0930253 0.647256C 0.0838804 0.652295 0.0750509 0.65387 0.0659061 0.65387C 0.0432016 0.65387 0.0220738 0.640957 0.0078835 0.615129C 0.0031534 0.605365 -3.48849e-08 0.596231 -3.48849e-08 0.586467C -3.48849e-08 0.562215 0.0160823 0.538278 0.0400482 0.527254C 0.291374 0.406622 0.505175 0.247249 0.665683 0.036851C 0.686811 0.0129136 0.722444 1.9224e-08 0.759339 1.9224e-08Z"/>
</defs>
</svg>
