<?xml version="1.0" encoding="UTF-8" standalone="no"?>
<svg xmlns:rdf="http://www.w3.org/1999/02/22-rdf-syntax-ns#" xmlns="http://www.w3.org/2000/svg" height="154.26" width="626.25" preserveAspectRatio="none" version="1.1" xmlns:cc="http://creativecommons.org/ns#" xmlns:xlink="http://www.w3.org/1999/xlink" viewBox="0 0 626.24694 154.25692" xmlns:dc="http://purl.org/dc/elements/1.1/">
<g transform="translate(1011.4 -264.23)">
<g transform="matrix(.25429 -.075111 .075111 .25429 -579.21 265.37)">
<path id="a" style="fill:#f3a6c2;fill-rule:evenodd" d="m324.51 246.87c-49.555 180.68 45.482 199.07 45.482 199.07s88.77-46.097 43.107-198.39l-43.96 43.95-44.63-44.63z"/>
<use xlink:href="#a" height="100%" width="100%" y="0" x="0"/>
<use xlink:href="#a" transform="matrix(.30902 .95106 -.95106 .30902 700.69 -25.906)" height="100%" width="100%" y="0" x="0"/>
<use xlink:href="#a" transform="matrix(-.80902 .58779 -.58779 -.80902 941.86 632.49)" height="100%" width="100%" y="0" x="0"/>
<use xlink:href="#a" transform="matrix(-.80902 -.58779 .58779 -.80902 390.21 1065.3)" height="100%" width="100%" y="0" x="0"/>
<use xlink:href="#a" transform="matrix(.30902 -.95106 .95106 .30902 -191.89 674.4)" height="100%" width="100%" y="0" x="0"/>
</g>
<g>
<path d="m-989.48 296.56h8.7v3.6375h-8.7v-3.6375zm0-5.625h8.7v3.5625h-8.7v-3.5625zm20.738 0v3.5625h-9.225v-3.5625h9.225zm0 9.2625h-9.225v-3.6375h9.225v3.6375zm2.8125 2.175v-13.65h-12.038v-3.15h15.038v-2.625h-15.038v-3.525h-2.8125v3.525h-14.662v2.625h14.662v3.15h-11.4v13.65h9.075c-3.3375 3.4875-8.55 6.7125-13.275 8.3625 0.675 0.5625 1.5 1.6125 1.95 2.325 4.7625-1.95 10.088-5.5125 13.65-9.525v10.088h2.8125v-10.2c3.6 4.05 9.075 7.7625 13.95 9.7125 0.4125-0.7875 1.275-1.8375 1.95-2.4-4.8-1.6125-10.125-4.8375-13.538-8.3625h9.675z"/>
<path d="m-925.51 283.73h-14.925v-4.35h-2.8875v4.35h-14.662v2.6625h32.475v-2.6625zm-26.362 19.275c-1.35 2.5875-4.0875 5.6625-6.7875 7.575 0.6375 0.4125 1.6125 1.125 2.2125 1.65 2.7375-2.1 5.6625-5.3625 7.425-8.325l-2.85-0.9zm1.2375-10.762h17.925v6.15h-17.925v-6.15zm20.812 8.5875v-11.025h-23.588v11.025h10.125v9.525c0 0.525-0.15 0.675-0.8625 0.675-0.6375 0.0375-2.9625 0.075-5.55 0 0.375 0.7125 0.7875 1.8375 0.9375 2.5875 3.3 0 5.4375 0 6.675-0.4125 1.275-0.4125 1.65-1.2 1.65-2.8125v-9.5625h10.612zm-5.025 3.4125c2.55 2.5125 5.55 6.075 6.9375 8.25l2.7-1.3875c-1.5-2.2125-4.65-5.625-7.125-8.0625l-2.5125 1.2z"/>
<path d="m-902.86 307.99v-21.525h13.462v-2.85h-29.625v2.85h13.125v21.525h-15.075v2.775h33.45v-2.775h-15.338z"/>
<path d="m-861.19 288.42c-0.525 1.275-1.275 2.8125-1.9125 3.9l0.375 0.1125h-8.8125l1.2-0.2625c-0.3-1.0125-1.05-2.5875-1.875-3.75h11.025zm10.762 16.312v-2.3625h-15.038v-2.775h11.738v-2.1375h-11.738v-2.7375h13.575v-2.2875h-8.5125c0.75-1.125 1.575-2.5875 2.325-4.0125h7.5v-2.4h-5.8125c1.05-1.425 2.25-3.4875 3.3-5.4l-2.85-0.75c-0.675 1.6875-1.875 4.125-2.85 5.7l1.3875 0.45h-4.5375v-6.6375h-2.625v6.6375h-4.4625v-6.6375h-2.5875v6.6375h-4.6125l1.9125-0.7125c-0.5625-1.5-1.9125-3.825-3.1875-5.5125l-2.3625 0.7875c1.125 1.6875 2.4375 3.9375 2.9625 5.4375h-5.9625v2.4h9.15l-1.3125 0.2625c0.75 1.125 1.5 2.625 1.8375 3.75h-8.175v2.2875h13.162v2.7375h-11.288v2.1375h11.288v2.775h-14.812v2.3625h12.262c-3.375 2.625-8.5875 4.875-13.238 5.925 0.6 0.6 1.425 1.65 1.8 2.3625 4.9125-1.425 10.388-4.125 13.988-7.3875v7.9875h2.7375v-8.175c3.6 3.45 9.075 6.2625 14.1 7.6875 0.375-0.7875 1.2375-1.875 1.875-2.475-4.8-1.0125-9.975-3.225-13.388-5.925h12.45z"/>
<path d="m-812.82 292.96v-2.85h-15.488c0.525-3.9375 0.5625-7.65 0.6-10.65h-3c-0.0375 2.9625 0 6.7125-0.5625 10.65h-14.288v2.85h13.838c-1.5375 7.0875-5.2875 14.288-14.588 18.338 0.7875 0.5625 1.6875 1.5375 2.1 2.2875 9.1125-4.1625 13.162-11.362 14.962-18.562 2.9625 8.5125 7.725 15.15 14.925 18.562 0.4875-0.825 1.425-1.9875 2.1-2.625-7.2375-2.9625-12.112-9.75-14.738-18h14.138z"/>
<path d="m-804.76 288.08h26.138v5.8125h2.7v-8.2875h-5.8125c1.275-1.5 2.6625-3.3 3.825-4.9875l-2.8875-0.975c-0.9375 1.7625-2.5875 4.2375-4.0125 5.9625h-6.6375l1.6125-0.6375c-0.4875-1.575-1.7625-3.975-3.0375-5.7375l-2.4 0.9c1.125 1.65 2.2875 3.9 2.7375 5.475h-7.65l1.275-0.6375c-0.675-1.425-2.2125-3.5625-3.6-5.1l-2.325 1.05c1.125 1.3875 2.4375 3.3 3.15 4.6875h-5.7375v8.2875h2.6625v-5.8125zm29.512 12.338h-15.112v-0.9375c3.3-1.575 6.7875-3.9375 9.1125-6.3375l-1.8-1.35-0.5625 0.15h-18.3v2.475h15.488c-1.5375 1.2-3.45 2.4-5.2875 3.3h-1.425v2.7h-15v2.5875h15v7.2375c0 0.5625-0.1875 0.75-0.975 0.7875-0.7125 0.0375-3.2625 0.0375-6.1125-0.0375 0.4125 0.7125 0.975 1.875 1.1625 2.6625 3.4125 0 5.55-0.0375 6.9-0.45s1.8-1.2375 1.8-2.8875v-7.3125h15.112v-2.5875z"/>
<path d="m-752.86 307.99v-21.525h13.462v-2.85h-29.625v2.85h13.125v21.525h-15.075v2.775h33.45v-2.775h-15.338z"/>
<path d="m-700.32 292.96v-2.85h-15.488c0.525-3.9375 0.5625-7.65 0.6-10.65h-3c-0.0375 2.9625 0 6.7125-0.5625 10.65h-14.288v2.85h13.838c-1.5375 7.0875-5.2875 14.288-14.588 18.338 0.7875 0.5625 1.6875 1.5375 2.1 2.2875 9.1125-4.1625 13.162-11.362 14.962-18.562 2.9625 8.5125 7.725 15.15 14.925 18.562 0.4875-0.825 1.425-1.9875 2.1-2.625-7.2375-2.9625-12.112-9.75-14.738-18h14.138z"/>
<path d="m-688.81 304.21c-1.575 2.6625-4.275 5.1375-7.0875 6.7875 0.675 0.375 1.8 1.275 2.2875 1.8 2.7375-1.8375 5.7375-4.7625 7.5375-7.7625l-2.7375-0.825zm24.112-1.6875v-2.5125h-28.65v2.5125h12.75v8.0625c0 0.4875-0.15 0.6375-0.7875 0.6375-0.6375 0.0375-2.625 0.0375-4.9875-0.0375 0.375 0.7125 0.7875 1.7625 0.9375 2.5125 2.925 0 4.875 0 6.075-0.4125 1.2-0.375 1.5375-1.125 1.5375-2.625v-8.1375h13.125zm-8.475 3.15c2.775 2.175 6.075 5.3625 7.65 7.3875l2.3625-1.575c-1.6125-2.0625-4.9875-5.1375-7.8-7.2l-2.2125 1.3875zm-16.95-19.388c1.6875 0.975 3.525 2.175 4.725 3.0375-0.6375 0.8625-1.3125 1.65-2.0625 2.4-1.2375-1.0125-3.075-2.2875-4.6875-3.3375 0.7125-0.675 1.3875-1.3875 2.025-2.1zm7.725-2.4375c-0.4875 1.35-1.125 2.625-1.875 3.825-1.2375-0.8625-3.0375-1.9125-4.6875-2.8125 0.3-0.3375 0.525-0.675 0.7875-1.0125h5.775zm17.588-2.175-0.5625 0.15h-9.1125v2.325h7.6125c-1.2 2.0625-2.8875 4.3125-4.6125 5.9625-2.3625-2.8125-4.0875-6.2625-5.175-10.2l-2.4375 0.525c1.4625 5.2125 3.7125 9.5625 6.9 12.9h-13.275c2.775-2.85 4.9875-6.45 6.2625-10.875l-1.6875-0.7125-0.45 0.1125h-5.475c0.375-0.6375 0.75-1.3125 1.0875-1.95l-2.7-0.4875c-1.5375 3.075-4.4625 6.8625-8.625 9.675 0.5625 0.3375 1.425 1.2 1.8375 1.8 0.525-0.375 1.05-0.7875 1.5375-1.2 1.65 1.0875 3.4875 2.4375 4.65 3.4875-2.325 1.9875-4.9875 3.45-7.6875 4.3875 0.5625 0.525 1.2375 1.5375 1.5375 2.175 3.3-1.3125 6.4875-3.225 9.1875-5.8875v2.025h14.438v-1.9125c2.2875 2.2125 5.025 3.9375 8.25 5.1375 0.4125-0.7125 1.2-1.7625 1.8-2.325-3.2625-1.05-6-2.7-8.2875-4.875 2.5875-2.4 5.175-5.85 6.7875-9.0375l-1.8-1.2z"/>
<path d="m-625.28 303.91v-2.475h-15.9c0.3375-1.1625 0.525-2.3625 0.6-3.525h11.138v-2.325h-11.062v-3.3375h11.588v-1.9875h2.8125v-7.2h-14.325v-3.6375h-2.775v3.6375h-14.288v7.2h2.7v-4.6875h25.875v4.3125h-11.588v-3.1125h-2.775v3.1125h-11.062v2.3625h11.062v3.3375h-10.462v2.325h10.388c-0.075 1.1625-0.2625 2.3625-0.7125 3.525h-13.988v2.475h12.712c-1.95 2.8125-5.775 5.4375-13.088 7.4625 0.6 0.6 1.3875 1.65 1.6875 2.25 8.55-2.55 12.638-6 14.588-9.7125h0.3375c2.85 5.3625 7.95 8.5125 15.262 9.7875 0.375-0.7125 1.0875-1.8375 1.6875-2.4-6.525-0.9375-11.325-3.375-13.988-7.3875h13.575z"/>
<path d="m-588.42 281.67h-18.3v2.625h18.3v-2.625zm-24.562-2.2875c-1.875 2.6625-5.475 6.0375-8.5875 8.1375 0.4875 0.525 1.2375 1.6125 1.65 2.2125 3.3375-2.3625 7.1625-6 9.6-9.3l-2.6625-1.05zm1.5375 7.9875c-2.5875 4.2375-6.6375 8.55-10.5 11.288 0.5625 0.5625 1.5375 1.7625 1.95 2.325 1.3875-1.0875 2.8125-2.4375 4.2375-3.9v16.65h2.775v-19.725c1.5375-1.8375 2.9625-3.75 4.125-5.6625l-2.5875-0.975zm24.112 4.5375h-21v2.6625h12.525v15.45c0 0.6375-0.225 0.7875-0.9375 0.825s-3.1875 0.0375-5.85-0.0375c0.4125 0.7875 0.7875 1.95 0.9 2.7 3.675 0 5.775 0 7.05-0.4125 1.2375-0.45 1.65-1.3125 1.65-3.0375v-15.488h5.6625v-2.6625z"/>
<path d="m-560.78 302.07c-1.0875 2.025-2.5875 3.6375-4.575 4.9125-2.775-0.675-5.7-1.3125-8.5875-1.8375 0.7125-0.975 1.425-2.025 2.1375-3.075h11.025zm-7.425-5.2125h2.7v-7.3125c3.525 3.6 9.1125 6.7125 14.175 8.25 0.3375-0.7125 1.1625-1.725 1.7625-2.325-4.4625-1.125-9.375-3.4125-12.675-6.1125h11.888v-2.2875h-15.15v-3.975c4.275-0.4125 8.2875-0.9375 11.4-1.65l-2.0625-1.9875c-5.5125 1.2375-15.938 2.025-24.488 2.25 0.225 0.5625 0.5625 1.575 0.6 2.175 3.75-0.075 7.875-0.2625 11.85-0.5625v3.75h-15.038v2.2875h11.888c-3.3375 2.85-8.25 5.325-12.712 6.525 0.5625 0.525 1.35 1.5 1.725 2.175 5.025-1.575 10.65-4.8 14.138-8.5125v6.8625l-2.6625-0.7125c-0.75 1.2375-1.6125 2.5875-2.55 3.975h-10.238v2.4h8.625c-1.35 1.95-2.7 3.825-3.7875 5.2875l2.5875 0.9 0.7875-1.05c2.2875 0.45 4.5375 0.9375 6.7125 1.4625-3.6375 1.425-8.4 2.175-14.4 2.5125 0.4875 0.6375 0.9 1.6875 1.0875 2.475 7.425-0.6 13.088-1.7625 17.25-4.0125 4.725 1.275 8.9625 2.6625 12.112 3.975l1.6875-2.2875c-2.8875-1.1625-6.75-2.3625-11.025-3.525 1.875-1.5375 3.3-3.4125 4.35-5.7375h7.8v-2.4h-20.325c0.7125-1.05 1.3875-2.0625 1.9875-3.0375v0.225z"/>
<path d="m-520.32 286.99h-17.738v-3.9h17.738v3.9zm2.8875-6.15h-23.4v8.4h23.4v-8.4zm-22.2 21.825h20.812v2.7h-20.812v-2.7zm0-4.6125h20.812v2.625h-20.812v-2.625zm0-4.6125h20.812v2.625h-20.812v-2.625zm23.662 13.988v-16.05h-26.438v16.05h6.975c-2.3625 1.5375-7.1625 3.2625-11.025 4.1625 0.675 0.5625 1.575 1.5 2.0625 2.0625 3.825-0.975 8.6625-2.775 11.662-4.6125l-2.475-1.6125h19.238zm-10.275 1.875c3.9375 1.1625 8.9625 3.075 11.775 4.3875l2.4-2.025c-2.925-1.2-7.9125-3.0375-11.775-4.1625l-2.4 1.8z"/>
<path d="m-507.08 300.68h9.8625c-1.0125 2.7375-2.625 6.15-4.05 8.7375-2.025 0.075-3.9 0.1125-5.5125 0.15l0.375 2.7375c6.4125-0.225 16.125-0.6375 25.312-1.0875 0.7125 0.9 1.275 1.7625 1.725 2.5125l2.5125-1.5375c-1.725-2.775-5.3625-6.825-8.8125-9.7875l-2.3625 1.275c1.65 1.4625 3.4125 3.3 4.95 5.0625-5.25 0.225-10.538 0.4125-15.188 0.5625 1.5-2.625 3.1125-5.85 4.425-8.625h17.588v-2.5875h-30.825v2.5875zm6.375-9.7125v2.55h17.738v-2.55h-17.738zm7.2-11.512c-2.8875 4.7625-9.1125 10.162-15.525 13.238 0.6 0.5625 1.3125 1.575 1.6125 2.2125 6.375-3.15 12.45-8.2875 15.488-12.788 3.4875 4.8375 10.05 9.825 15.825 12.638 0.4875-0.825 1.1625-1.8 1.8-2.475-5.8875-2.4375-12.412-7.3125-16.35-12.825h-2.85z"/>
</g>
<g>
<path d="m-945.91 334.68c-11.31 2.405-30.94 4.03-47.645 4.68 0.585 1.3 1.235 3.64 1.3 5.135 16.9-0.585 36.92-2.145 50.57-4.875l-4.225-4.94zm-42.64 24.18h44.005v8.125h5.915v-13.455h-10.205c1.82-2.6 3.705-5.85 5.395-8.775l-6.305-1.69c-1.235 3.185-3.315 7.41-5.2 10.465h-12.935l5.46-1.365c-0.39-2.405-1.82-6.11-3.25-8.97l-5.395 1.17c1.365 2.925 2.6 6.76 2.925 9.165h-14.04l3.51-1.105c-0.715-2.21-2.405-5.655-4.16-8.125l-5.265 1.495c1.43 2.34 2.925 5.46 3.705 7.735h-9.815v13.455h5.655v-8.125zm33.02 11.83c-2.73 3.9-6.37 7.02-10.79 9.555-4.68-2.6-8.515-5.785-11.375-9.555h22.165zm5.005-5.785-1.105 0.195h-34.125v5.59h2.795l-1.17 0.52c3.12 4.68 7.085 8.71 11.83 11.96-6.825 2.86-14.755 4.68-23.335 5.72 1.3 1.3 2.925 3.9 3.51 5.46 9.23-1.495 18.07-3.835 25.675-7.605 7.215 3.705 15.73 6.175 25.35 7.54 0.845-1.755 2.405-4.355 3.705-5.72-8.58-0.91-16.25-2.73-22.88-5.395 5.85-4.03 10.725-9.165 13.845-15.795l-4.095-2.47z"/>
<path d="m-928.68 391.03c2.535-3.51 3.25-9.555 3.51-15.34l-3.445-0.715c-0.26 5.525-1.04 11.05-3.315 14.3l3.25 1.755zm4.615-14.82c0.585 3.835 0.91 8.645 0.715 11.895l3.055-0.455c0.13-3.12-0.195-7.995-0.91-11.765l-2.86 0.325zm11.375-9.49v-5.07h6.435v-4.745h-6.435v-4.94h6.435v-0.585c0.975 1.235 2.145 3.315 2.73 4.615 1.82-1.105 3.64-2.47 5.33-3.965v3.705h7.215v4.485h-11.505v16.445h10.01c-1.755 5.07-5.59 9.945-13.52 13.715 0.91-3.185 1.43-9.49 1.95-21.45 0.065-0.65 0.065-2.21 0.065-2.21h-8.71zm-10.4-5.07h5.46v5.07h-5.46v-5.07zm5.46-9.685v4.94h-5.46v-4.94h5.46zm0-9.425v4.68h-5.46v-4.68h5.46zm20.605 8.45c3.51-3.315 6.565-7.15 8.45-10.66 2.21 3.64 5.525 7.475 9.165 10.66h-17.615zm18.135 13.78v7.345h-7.02c0.26-2.015 0.325-4.03 0.325-6.045v-1.3h6.695zm-18.59 7.345v-7.345h6.5v1.235c0 2.015-0.065 4.03-0.39 6.11h-6.11zm23.79 4.55v-16.445h-11.895v-4.485h7.28v-3.77c1.56 1.3 3.185 2.47 4.745 3.445 0.78-1.69 2.015-3.835 3.055-5.2-5.72-2.99-11.765-9.035-15.6-15.21h-5.33c-2.795 5.72-8.71 12.545-14.82 16.185v-3.965h-6.435v-4.68h7.8v-5.005h-23.27v33.995h18.915c-0.13 3.705-0.325 6.63-0.52 9.035-0.65-2.08-1.82-4.68-2.925-6.695l-2.6 0.845c1.365 2.665 2.73 6.11 3.185 8.45l2.21-0.845c-0.39 4.225-0.845 6.175-1.43 6.89-0.455 0.65-0.975 0.78-1.69 0.78-0.845 0-2.6 0-4.615-0.195 0.78 1.235 1.235 3.315 1.365 4.745 2.21 0.065 4.355 0.065 5.72-0.13 1.495-0.13 2.6-0.65 3.575-1.885 0.325-0.39 0.65-0.975 0.91-1.82 1.17 0.975 2.795 2.86 3.38 4.03 8.385-4.03 12.74-9.23 14.95-14.755 2.73 6.5 7.085 11.7 13 14.56 0.845-1.43 2.6-3.705 3.835-4.745-5.85-2.405-10.335-7.215-12.87-13.13h10.075zm-40.625 8.84c-0.195-2.73-1.235-7.085-2.405-10.335l-2.73 0.52c1.04 3.315 2.015 7.67 2.21 10.465l2.925-0.65z"/>
<path d="m-833.2 386.81v-14.95h20.215v-5.785h-20.215v-13h22.62v-5.915h-22.62v-12.09h-6.24v12.09h-11.765c1.235-3.12 2.405-6.435 3.38-9.75l-6.24-1.43c-2.405 9.1-6.5 18.005-11.765 23.53 1.625 0.845 4.29 2.6 5.525 3.64 2.275-2.73 4.42-6.175 6.435-10.075h14.43v13h-18.525v5.785h18.525v14.95h-25.74v5.85h57.72v-5.85h-25.74z"/>
<path d="m-790.04 348.78h47.775v-5.85h-24.115v-7.93h-6.305v7.93h-23.4v16.51c0 9.295-0.455 22.49-5.72 31.72 1.365 0.65 4.03 2.47 5.135 3.445 5.655-9.945 6.63-25.025 6.63-35.165v-10.66zm33.865 10.725c-3.445-2.99-10.14-7.02-15.275-9.49l-4.095 3.965c5.265 2.73 11.895 7.085 15.015 10.01l4.355-4.485zm-28.99 29.25c3.12-5.135 4.615-13.715 5.395-20.8l-5.525-1.235c-0.65 6.955-2.21 14.625-5.265 19.63l5.395 2.405zm17.485-0.78c-2.21 0-2.665-0.39-2.665-2.665v-23.855h-5.915v23.855c0 6.175 1.56 8.125 7.67 8.125h8.45c5.72 0 7.28-2.99 7.865-13.78-1.56-0.455-4.095-1.495-5.33-2.47-0.325 9.165-0.65 10.79-2.99 10.79h-7.085zm12.285-20.67c4.03 6.825 7.67 15.73 8.58 21.45l5.915-2.47c-1.04-5.85-5.005-14.495-9.165-21.125l-5.33 2.145z"/>
<path d="m-683.18 335.39c-7.8 1.625-21.32 2.73-32.5 3.12 0.585 1.3 1.17 3.25 1.365 4.615 11.44-0.26 25.285-1.3 34.515-3.25l-3.38-4.485zm-11.635 15.535c-0.325-2.015-1.105-5.525-1.82-8.19l-4.81 0.845c0.65 2.73 1.365 6.37 1.625 8.515l5.005-1.17zm-21.125 18.98-0.845-5.525c-2.015 0.65-4.16 1.235-6.175 1.82v-12.935h6.5v-5.59h-6.5v-12.61h-5.525v12.61h-7.54v5.59h7.54v14.625c-3.055 0.845-5.915 1.625-8.19 2.21l0.975 5.98 7.215-2.275v14.17c0 0.91-0.325 1.105-1.17 1.105-0.715 0.065-3.12 0.065-5.72 0 0.78 1.56 1.495 4.16 1.625 5.59 4.16 0 6.695-0.195 8.45-1.17 1.755-0.91 2.34-2.535 2.34-5.525v-15.86l7.02-2.21zm27.82 4.745c-1.495 3.25-3.51 5.915-6.045 8.06-3.185-2.21-5.785-4.94-7.735-8.06h13.78zm3.51-4.68-1.04 0.13h-16.835c0.195-1.235 0.455-2.34 0.65-3.575h24.57v-5.005h-23.855c0.195-1.43 0.325-2.795 0.455-4.225h21.45v-4.81h-7.085c1.885-2.665 3.9-5.915 5.72-8.905l-5.72-1.755c-1.17 3.185-3.445 7.54-5.46 10.66h-17.095l3.705-1.3c-0.52-1.885-1.885-5.2-3.055-7.605l-4.615 1.235c1.04 2.47 2.145 5.59 2.665 7.67h-4.485v4.81h8.125c-0.13 1.365-0.26 2.73-0.39 4.225h-9.1v5.005h8.385c-1.495 8.97-4.94 18.2-13.91 23.725 1.43 0.975 3.185 2.925 3.965 4.29 6.11-4.03 10.01-9.555 12.415-15.6 1.885 2.6 3.965 4.94 6.435 7.02-3.51 1.885-7.475 3.315-11.96 4.29 1.04 0.975 2.665 3.25 3.315 4.55 4.875-1.3 9.36-3.055 13.26-5.59 4.16 2.535 8.97 4.42 14.43 5.59 0.845-1.56 2.47-3.9 3.705-5.07-5.005-0.845-9.62-2.21-13.585-4.29 3.64-3.575 6.5-8.125 8.255-14.105l-3.315-1.365z"/>
<path d="m-626.37 351.64v-7.54c0-2.6 0.26-4.68 0.39-5.655h-7.345c0.13 0.91 0.325 3.055 0.325 5.655v7.54h-17.16v-7.475c0-2.405 0.26-4.355 0.39-5.2h-7.28c0.065 0.845 0.325 2.925 0.325 5.2v7.475h-6.37c-2.99 0-5.915-0.325-6.76-0.455v6.955c1.04-0.065 3.705-0.195 6.76-0.195h6.37v9.75c0 2.665-0.26 5.395-0.325 6.305h7.15c-0.065-0.91-0.26-3.64-0.26-6.305v-9.75h17.16v2.6c0 17.225-5.72 22.815-17.875 27.3l5.525 5.2c15.21-6.825 18.98-16.12 18.98-32.89v-2.21h6.175c3.055 0 5.395 0.065 6.435 0.195v-6.89c-1.3 0.26-3.38 0.39-6.5 0.39h-6.11z"/>
<path d="m-569.62 356.97c6.565-4.225 12.675-9.295 17.355-13.975l-5.525-5.005c-3.64 4.68-10.4 10.465-16.965 14.56-7.215 4.485-18.2 9.295-29.315 11.83l3.705 6.305c8.06-2.275 16.705-5.915 23.53-9.555v23.14c0 2.665-0.195 6.24-0.39 7.67h8.06c-0.325-1.43-0.455-5.005-0.455-7.67v-27.3z"/>
<path d="m-488.24 366.53c-6.5-3.185-18.915-7.8-27.495-10.4v-10.14c0-2.275 0.26-5.135 0.455-7.28h-7.995c0.39 2.21 0.585 5.2 0.585 7.28v37.57c0 2.535-0.195 6.045-0.52 8.32h7.995c-0.325-2.34-0.52-6.305-0.52-8.32v-20.085c7.15 2.34 17.68 6.435 24.57 10.14l2.925-7.085z"/>
</g>
</g>
</svg>
